<svg xmlns="http://www.w3.org/2000/svg" viewBox="0 0 417.885 417.885" xmlns:v="https://vecta.io/nano"><path d="M414.986 147.236c-.994-2.892-4.515-5.142-7.454-5.142H369.35c-2.45 0-5.3 1.566-6.758 3.762-8.03-19.086-17.27-38.732-26.146-52.353a12.5 12.5 0 0 0-6.8-5.125c-1.617-.497-40.534-12.19-120.704-12.19S89.857 87.88 88.24 88.378a12.5 12.5 0 0 0-6.8 5.126c-8.877 13.623-18.115 33.27-26.146 52.353-1.457-2.196-4.307-3.763-6.758-3.763H10.353c-2.94 0-6.46 2.25-7.455 5.142C-.968 158.494-.966 164.94 2.9 176.2c.994 2.892 4.515 5.142 7.454 5.142h20.075c-9.345 9.35-15.142 22.246-15.142 36.478a14.88 14.88 0 0 0 .134 1.989l1.208 8.878c.402 2.958 1.674 5.602 3.522 7.713v20.187h-1.166a5 5 0 0 0-5 5v59.82c0 11.19 9.103 20.29 20.29 20.29h40.573c11.188 0 20.29-9.103 20.29-20.29v-25.71h229.69v25.71c0 11.19 9.103 20.29 20.29 20.29h40.573c11.19 0 20.29-9.103 20.29-20.29v-59.82a5 5 0 0 0-5-5h-1.167v-18.224a14.72 14.72 0 0 0 5.606-9.677l1.207-8.878c.1-.66.134-1.324.134-1.99 0-14.232-5.797-27.128-15.142-36.478h15.908c2.94 0 6.46-2.25 7.454-5.142 3.87-11.258 3.868-17.704.003-28.962zm-315.1-36.06c11.79-2.815 47.803-9.975 109.056-9.975 61.277 0 97.297 7.165 109.058 9.974 8.35 13.875 17.125 33.463 24.604 51.83-19.64-3.2-58.322-6.83-132.62-6.83-78.96 0-117.08 4.17-134.996 7.544 7.54-18.568 16.434-38.482 24.897-52.545zM30.66 284.53v-13h35.5l3.75 13H30.66zm-.508-27.943V232l68.99 4.442 6.732 20.134H30.15zm264.636 25.93H125.182l-5.197-16.892h180l-5.198 16.892zm8.764-25.93H116.418l-5.06-15.135H308.61l-5.06 15.135zm-195.274-24.62l-5.167-16.793h213.75l-5.167 16.793H108.277zM389.31 284.53h-39.25l3.75-13h35.5v13zm.51-27.943h-75.723l6.732-20.134 68.99-4.442v24.576z"/></svg>