<svg xmlns="http://www.w3.org/2000/svg" viewBox="0 0 473.982 473.982" xmlns:v="https://vecta.io/nano"><path d="M330.563 187.578H143.418a7.5 7.5 0 1 0 0 15h187.146a7.5 7.5 0 0 0 7.5-7.5c0-4.142-3.36-7.5-7.5-7.5zm-265.33 34H37.516a7.5 7.5 0 1 0 0 15h27.718c13.697 0 25.247 9.372 28.575 22.04H39.437a7.5 7.5 0 1 0 0 15h62.835a7.5 7.5 0 0 0 7.5-7.5c.001-24.56-19.98-44.54-44.538-44.54zm343.513 15h27.718a7.5 7.5 0 1 0 0-15h-27.718c-24.56 0-44.54 19.98-44.54 44.54a7.5 7.5 0 0 0 7.5 7.5h62.835a7.5 7.5 0 1 0 0-15h-54.37c3.328-12.668 14.878-22.04 28.575-22.04zm49.93-47.963c-10.513-10.987-24.8-17.038-40.2-17.038-.675 0-1.347.1-1.997.27l-24.103 6.66-35.507-68.214c-6.357-12.212-22.12-21.778-35.887-21.778H152.998c-13.767 0-29.53 9.566-35.887 21.778l-35.507 68.214-24.103-6.66c-.65-.18-1.322-.27-1.997-.27-15.4 0-29.688 6.05-40.2 17.038S-.624 214.132.057 229.573L5.5 338.092c.2 4 3.495 7.125 7.5 7.125h2.5v32.75a7.5 7.5 0 0 0 7.5 7.5h78.9a7.5 7.5 0 0 0 7.5-7.5v-10.25a7.5 7.5 0 1 0-15 0v2.75H30.5v-25.25h413v25.25h-63.9v-2.75a7.5 7.5 0 1 0-15 0v10.25a7.5 7.5 0 0 0 7.5 7.5H451a7.5 7.5 0 0 0 7.5-7.5v-32.75h2.5a7.5 7.5 0 0 0 7.491-7.125l5.444-108.563c.68-15.397-4.736-29.927-15.25-40.914zm.266 40.207l-5.085 101.394H20.124l-5.083-101.35c-.497-11.268 3.445-21.88 11.102-29.88 7.434-7.77 17.482-12.15 28.385-12.396l56.893 15.718a7.5 7.5 0 1 0 3.994-14.458l-19.026-5.256 34.028-65.373c3.8-7.3 14.352-13.704 22.582-13.704h167.984c8.23 0 18.782 6.404 22.582 13.704l34.028 65.373-19.026 5.256a7.5 7.5 0 1 0 3.994 14.458l56.893-15.718c10.903.247 20.95 4.627 28.385 12.396 7.656 8 11.598 18.613 11.103 29.836zm-40.466-72.244h26.128a7.5 7.5 0 1 0 0-15h-26.128a7.5 7.5 0 1 0 0 15zm-389.1 0h26.128a7.5 7.5 0 1 0 0-15H29.376a7.5 7.5 0 1 0 0 15zm290.8 123.592h-166.37a7.5 7.5 0 0 0-7.5 7.5v20.045a7.5 7.5 0 1 0 15 0V295.17h151.37v12.545a7.5 7.5 0 1 0 15 0V287.67a7.5 7.5 0 0 0-7.5-7.5zm-41.593-37.592a7.5 7.5 0 1 0 0-15h-83.186a7.5 7.5 0 1 0 0 15h83.186z"/></svg>