<svg xmlns="http://www.w3.org/2000/svg" viewBox="0 0 463.199 463.199" xmlns:v="https://vecta.io/nano"><path d="M455.14 172.846c-12.827-6.715-47.824 4.588-56.94 10.454a492.87 492.87 0 0 0-10.044-17.084c-18.775-30.452-34.697-48.1-48.678-53.947-.56-.235-1.14-.423-1.733-.563-1.2-.283-30.256-6.925-106.144-6.925s-104.945 6.643-106.145 6.925a11.06 11.06 0 0 0-1.733.563c-13.98 5.85-29.903 23.495-48.678 53.947-3.672 5.956-7.06 11.773-10.044 17.084-9.117-5.866-44.115-17.17-56.94-10.454-13.235 6.93-7.932 28.738 0 34.653 4.952 3.692 18.54 4.816 32.847 3.865a50.18 50.18 0 0 0-7.515 14.389c22.564 4.23 75.605 4.047 67.678 21.244-11.598 25.155-47.296 21.673-69.3 10.49l4.11 70.924c0 16.574 13.436 30.01 30 30.01h18.047c16.574 0 30.01-13.435 30.01-30.01l-.59-6.358h236.492l-.59 6.358c0 16.574 13.435 30.01 30.01 30.01h18.047c16.574 0 30-13.435 30-30.01l4.108-70.924c-22.004 11.184-57.702 14.667-69.3-10.49-7.928-17.197 45.113-17.014 67.678-21.244a50.13 50.13 0 0 0-7.515-14.389c14.308.952 27.895-.172 32.847-3.865 7.93-5.915 13.234-27.724-.001-34.653zM289.346 288.72H173.853l-12-43.755h139.492l-12 43.755zM85.872 191.233c14.366-25.134 32.724-51.975 45.553-58.16 5.38-1.057 34.726-6.15 100.175-6.15 65.524 0 94.864 5.106 100.172 6.15 12.813 6.177 31.175 33.022 45.55 58.162H85.872z"/></svg>