<svg xmlns="http://www.w3.org/2000/svg" viewBox="0 0 394.648 394.648" xmlns:v="https://vecta.io/nano"><path d="M391.91 145.036c-.938-2.73-4.263-4.855-7.04-4.855h-36.06c-2.775 0-6.1 2.124-7.04 4.855-.918 2.673-1.604 5.058-2.06 7.3l-24.088-66.64a27.92 27.92 0 0 0-26.179-18.372H105.21a27.92 27.92 0 0 0-26.18 18.374l-24.09 66.647c-.457-2.245-1.143-4.633-2.062-7.31-.938-2.73-4.264-4.855-7.04-4.855H9.778c-2.775 0-6.1 2.124-7.04 4.855-3.652 10.633-3.65 16.72.001 27.354.938 2.73 4.264 4.855 7.04 4.855h36.06c.034 0 .07-.01.105-.01l-.544 1.507c-7.353 2.443-12.662 9.365-12.662 17.54v122.156a8.89 8.89 0 0 0 8.887 8.887h44.727a8.89 8.89 0 0 0 8.887-8.887v-43.262H299.4v43.262a8.89 8.89 0 0 0 8.887 8.887h44.727a8.89 8.89 0 0 0 8.887-8.887V196.28c0-8.172-5.307-15.093-12.657-17.538l-.545-1.508c.033.001.068.01.1.01h36.06c2.776 0 6.1-2.124 7.04-4.855 3.65-10.633 3.65-16.72-.001-27.353zm-283.297-45.008h177.402l28.108 77.762H80.505l28.107-77.762zm4.948 132.543H76.142c-8.028 0-14.535-6.507-14.535-14.535S68.113 203.5 76.142 203.5h37.418c8.027 0 14.535 6.507 14.535 14.535s-6.508 14.535-14.535 14.535zm204.945 0h-37.418c-8.027 0-14.535-6.507-14.535-14.535a14.54 14.54 0 0 1 14.535-14.535h37.418c8.028 0 14.535 6.507 14.535 14.535s-6.507 14.535-14.535 14.535z"/></svg>