<svg xmlns="http://www.w3.org/2000/svg" viewBox="0 0 449.999 449.999" xmlns:v="https://vecta.io/nano"><path d="M449.977 171.98c-.36-6.783-5.064-11.273-10.51-10.028l-39.785 9.096c-4.115.94-7.47 4.892-8.71 9.694-17.478-25.176-48.266-65.94-70.16-75.1-3.03-1.246-21.897-7.46-95.814-7.46s-92.782 6.215-95.878 7.488c-21.85 9.14-52.623 49.898-70.097 75.073-1.24-4.802-4.594-8.752-8.71-9.693l-39.785-9.096C5.086 160.708.38 165.198.02 171.98s3.76 13.292 9.202 14.537l35.292 8.07c-12.303 9.173-20.27 23.837-20.27 40.363l5.03 86.86c0 16.574 13.436 30.01 30 30.01h18.047c16.574 0 30.01-13.435 30.01-30.01l-.59-6.358h236.492l-.59 6.358c0 16.574 13.435 30.01 30.01 30.01h18.047c16.574 0 30-13.435 30-30.01l5.03-86.86c0-16.526-7.968-31.19-20.27-40.363l35.292-8.07c5.444-1.245 9.566-7.753 9.204-14.537zM137.42 126.198c1.735-.564 19.91-5.877 87.58-5.877 67.535 0 85.772 5.292 87.57 5.874 13.097 5.7 35.568 32.828 54.033 58.438H83.394c18.487-25.642 40.982-52.81 54.025-58.435zm129.846 174.566h-84.53c-3.892 0-7.045-3.154-7.045-7.044s3.153-7.044 7.045-7.044h84.53c3.892 0 7.045 3.154 7.045 7.044s-3.153 7.044-7.045 7.044zm68.834-37.57s-14.09-8.116-31.196-10.096h-168.46c-17.107 1.98-31.196 10.096-31.196 10.096-39.247 10.064-49.914-22.14-49.914-22.14h330.682c-.001 0-10.668 32.202-49.915 22.14z"/></svg>