<svg xmlns="http://www.w3.org/2000/svg" viewBox="0 0 64 64" xmlns:v="https://vecta.io/nano"><path d="M50.63 26.226c-.13-1.393-.03-5.182 3.6-10.45a1 1 0 0 0-.116-1.274l-3.038-3.066c-.845-.86-1.23-1.254-1.795-1.766a1 1 0 0 0-1.328-.013c-6.325 5.504-13.35 16.877-12.334 30.8.596 8.182 6.563 14.12 14.2 14.12A14.21 14.21 0 0 0 64 40.396c0-7.55-5.926-13.74-13.37-14.17zm-.823 26.362c-6.55 0-11.677-5.158-12.195-12.265-1.144-15.672 8.172-25.85 10.986-28.546l1.05 1.06 2.47 2.498c-4.405 6.787-3.574 11.623-3.2 12.316.173.33.527.55.898.55a12.21 12.21 0 0 1 12.193 12.193 12.21 12.21 0 0 1-12.193 12.192zM15.114 26.226c-.13-1.4-.034-5.175 3.6-10.45a1 1 0 0 0-.116-1.274l-3.033-3.062c-.848-.863-1.234-1.257-1.8-1.77-.377-.34-.947-.344-1.328-.014C6.1 15.16-.916 26.53.1 40.468v.001c.598 8.18 6.566 14.12 14.192 14.12 7.826 0 14.193-6.366 14.193-14.192 0-7.55-5.926-13.743-13.37-14.17zm-.822 26.362c-6.548 0-11.68-5.158-12.198-12.266v.001c-1.14-15.675 8.175-25.852 11-28.546l1.053 1.063 2.467 2.495c-4.405 6.788-3.574 11.623-3.2 12.315a1.04 1.04 0 0 0 .899.552 12.21 12.21 0 0 1 12.193 12.193 12.21 12.21 0 0 1-12.193 12.192z"/></svg>